<svg xmlns="http://www.w3.org/2000/svg" viewBox="0 0 216.07 86"><defs><style>.cls-1{fill:#c08329;}</style></defs><title>Asset 1</title><g id="Layer_2" data-name="Layer 2"><g id="Layer_2-2" data-name="Layer 2"><path class="cls-1" d="M14.83,25.63Q11.38,33.12,11.38,39q0,12.17,8.35,14.9a19.49,19.49,0,0,0,5,.65,21.19,21.19,0,0,0,5.15-.65,30.72,30.72,0,0,0,9.29-4.1q4.1-2.74,5.18-5.26,2.88-6.7,6.19-6.7a2.25,2.25,0,0,1,2.23,1.87,2.91,2.91,0,0,1,.14,1.58,41.26,41.26,0,0,1-3.1,11.12,106,106,0,0,1-6.7,12.64A66.63,66.63,0,0,1,58.9,67q1.51.36,1.51,1t-2.09.29Q53.35,67,44,67H42.12a42.91,42.91,0,0,1-11.7,11.2A47.56,47.56,0,0,1,16.2,84.82a26.13,26.13,0,0,1-6.48,1,13.28,13.28,0,0,1-4.46-.65Q0,83.23,0,80.06a4.81,4.81,0,0,1,.5-2q1.94-4.32,10.22-8a49.47,49.47,0,0,1,13.21-3.82,123.42,123.42,0,0,1,15.59-1.15A61,61,0,0,0,46.8,47.38l.29-1.22A41.75,41.75,0,0,1,39.28,52a37.64,37.64,0,0,1-7.6,3.56,29.3,29.3,0,0,1-8.53,1.66,16.81,16.81,0,0,1-5.87-.94A14,14,0,0,1,9.79,50a22.52,22.52,0,0,1-3.1-12,36,36,0,0,1,3.67-15q-4.75-4.89-4.75-10.4T10.08,2.09q.86-.93,1.26-.68T11,2.66a14.45,14.45,0,0,0-3.24,8.71,14.29,14.29,0,0,0,3.74,9.43A30.09,30.09,0,0,1,13.1,18,37.3,37.3,0,0,1,28.37,3.89,31.9,31.9,0,0,1,43,0a26.58,26.58,0,0,1,3.89.29Q56.16,1.73,59.4,7.92a11.14,11.14,0,0,1,1.3,5.29,12.62,12.62,0,0,1-1.8,6.08q-4,7-14.11,9.79A39.63,39.63,0,0,1,33.91,30.6Q22.25,30.6,14.83,25.63ZM3.67,80.57q0,2,3.46,2.74a10.43,10.43,0,0,0,2.52.29q5.11,0,13-3.67A38,38,0,0,0,38.38,67a100,100,0,0,0-13.25,1.15,39.53,39.53,0,0,0-15.62,6Q3.67,77.9,3.67,80.57Zm41-78.34q-6.19,0-13.1,4.18A40.73,40.73,0,0,0,15.77,23.76a20.78,20.78,0,0,0,7.81,3.67,31.63,31.63,0,0,0,7.09,1.08q15.19,0,23-8.14Q57.53,16.2,57.53,12q0-6.62-7.42-8.93A18.08,18.08,0,0,0,44.64,2.23Z"/><path class="cls-1" d="M70.92,33.7q5.25,0,5.26,6.62a15.62,15.62,0,0,1-1.58,6.48,25.63,25.63,0,0,1-6,8.5,3.47,3.47,0,0,0,3.38,1.8,4.94,4.94,0,0,0,3.67-1.94,19.74,19.74,0,0,0,3.1-3.92l1.37-2.48q.43-.79,1.12-2.27l.83-1.8a.51.51,0,0,1,.5-.32q.72-.07.72.5a1.16,1.16,0,0,1-.14.5l-.43,1q-.43,1-.65,1.44l-.76,1.55q-.54,1.12-.94,1.76l-1.08,1.73A16.94,16.94,0,0,1,78,54.58q-.54.65-1.33,1.44a8.05,8.05,0,0,1-1.51,1.22,6.64,6.64,0,0,1-3.38,1.08,5.83,5.83,0,0,1-4.61-1.87,10.56,10.56,0,0,1-6.12,2.45q-5.26,0-5.26-6.62a15.61,15.61,0,0,1,1.58-6.48,24.16,24.16,0,0,1,6.08-8.57Q67.39,33.7,70.92,33.7Zm.79,2.23q-1.94,0-4.61,2.59a23.81,23.81,0,0,0-4.75,7.06q-2.52,5.18-2.52,8.5t2.52,3.31a6.49,6.49,0,0,0,4-1.94,6.06,6.06,0,0,1-1.15-3.53q.14-3.1,2.52-3.1a2,2,0,0,1,1.55.65,1.84,1.84,0,0,1,.61,1.19,4.61,4.61,0,0,1-.14,1.12,40.55,40.55,0,0,0,2.81-5.11,16.29,16.29,0,0,0,1.8-7.2Q74.38,35.93,71.71,35.93Z"/><path class="cls-1" d="M91.65,30q0,3.24-4.1,6.12,1.44.07,3.85.07t6.08-.36A2.69,2.69,0,0,1,97.63,37a7.36,7.36,0,0,1-.86,2.77q-.86,1.84-1.55,3.17l-1.3,2.52q-.61,1.19-1.37,2.92t-1.26,3.17Q89.49,57,91.87,57q3,0,8.93-12,.5-.93.83-.72a.64.64,0,0,1,.32.54,10.06,10.06,0,0,1-.94,2.23Q100.08,49,99,51a27,27,0,0,1-3.38,4.68Q92.88,59,90.36,59q-2.81,0-3.89-3.38a6.57,6.57,0,0,1-.22-1.94,10.3,10.3,0,0,1,.83-3.46,37.86,37.86,0,0,1,2.63-5.26q1.8-3.1,2-3.64a2.81,2.81,0,0,0,.22-1q0-2.23-5.76-2.38l-.86,2.3q-4.54,11.88-8.71,15.91-.72.65-.72-.43a1.17,1.17,0,0,1,.14-.5,55.14,55.14,0,0,0,7-12.6,68.48,68.48,0,0,0,4.1-13.82q.43-2.23,2-2.23t2.3,2A4.8,4.8,0,0,1,91.65,30Z"/><path class="cls-1" d="M95.69,81.65q-6.77,0-6.77-5.54,0-4.61,6.26-8.28A72.91,72.91,0,0,1,108.79,62q3.81-1.23,5.54-1.94a36.73,36.73,0,0,0,1.87-12,9.7,9.7,0,0,0-.14-1.94,44.48,44.48,0,0,1-5.54,8.42q-4.18,5.18-8.28,4Q98.49,57,98.49,52.42q0-6.19,6.19-13.61a14.69,14.69,0,0,1,7.92-5.11,8.67,8.67,0,0,1,2.45-.36,11,11,0,0,1,6.34,2.16q1.15.94,1.15,1.58a2.16,2.16,0,0,1-.43,1.26q-.43.61-.9.14a2.39,2.39,0,0,1-.61-.9q-.94-2.66-3-2.66-3.82,0-8.57,5.33a37.84,37.84,0,0,0-4.61,6.48Q102,51,102,53.39t1.44,3.13a2.54,2.54,0,0,0,1,.22q1.66,0,4.14-2.27a26.05,26.05,0,0,0,4.61-5.76,25.8,25.8,0,0,0,2.7-5.44,4.21,4.21,0,0,1,1.4-2.45,4,4,0,0,1,1.84-.58,2.61,2.61,0,0,0,1.37-.36,43.93,43.93,0,0,1,.58,7.6,38.1,38.1,0,0,1-1.51,9.9,22,22,0,0,0,4.72-4.25,29,29,0,0,0,2.23-3.38q.83-1.51,1.48-3t.86-1.91a1,1,0,0,1,.72-.54c.33-.07.5.08.5.47a2.25,2.25,0,0,1-.22.86,66.45,66.45,0,0,1-5.29,9.47,14.77,14.77,0,0,1-5.8,4.64,42.59,42.59,0,0,1-5,9.72,35,35,0,0,1-8.24,8.5A16.58,16.58,0,0,1,95.69,81.65Zm-5.26-4.18q0,2.73,3.53,2.74A11.37,11.37,0,0,0,98.67,79,24.64,24.64,0,0,0,103,76.46a40.2,40.2,0,0,0,6.48-7.06,36.48,36.48,0,0,0,4.1-7.27l-2.52.86q-11.23,3.89-15.84,6.91a10.49,10.49,0,0,0-4.46,5.69A6.05,6.05,0,0,0,90.43,77.47Z"/><path class="cls-1" d="M132,47.81a14.23,14.23,0,0,0-1,5.47,5.18,5.18,0,0,0,.9,3.2,3,3,0,0,0,2.56,1.19q6.55,0,11.88-12.31.5-1.15,1.22-1a.34.34,0,0,1,.29.36,30.17,30.17,0,0,1-1.62,3.78A30.39,30.39,0,0,1,143,54.14q-3.67,5-9.07,5a6.93,6.93,0,0,1-4.9-1.87,6.63,6.63,0,0,1-2-5.11,17.56,17.56,0,0,1,1.55-6.88,26.3,26.3,0,0,1,4.21-6.77A16.17,16.17,0,0,1,138.89,34a8,8,0,0,1,3.17-.72,5,5,0,0,1,2.81.86,2.89,2.89,0,0,1,1.22,2.23q0,4.32-5.18,8.28a15.44,15.44,0,0,1-4.46,2.2A15.12,15.12,0,0,1,132,47.81Zm12.1-11.52q0-1.44-1.15-1.44-2,0-6.12,5a37,37,0,0,0-4.32,6.77,11.39,11.39,0,0,0,3.56-.86,13.7,13.7,0,0,0,4.07-2.3Q144.14,40,144.14,36.29Z"/><path class="cls-1" d="M159.69,33.7q5.25,0,5.26,6.62a15.62,15.62,0,0,1-1.58,6.48,25.63,25.63,0,0,1-6,8.5,3.47,3.47,0,0,0,3.38,1.8,4.94,4.94,0,0,0,3.67-1.94,19.74,19.74,0,0,0,3.1-3.92l1.37-2.48q.43-.79,1.12-2.27l.83-1.8a.51.51,0,0,1,.5-.32q.72-.07.72.5a1.16,1.16,0,0,1-.14.5l-.43,1q-.43,1-.65,1.44L170,49.36q-.54,1.12-.94,1.76L168,52.85a16.94,16.94,0,0,1-1.22,1.73q-.54.65-1.33,1.44a8.05,8.05,0,0,1-1.51,1.22,6.64,6.64,0,0,1-3.38,1.08,5.83,5.83,0,0,1-4.61-1.87,10.56,10.56,0,0,1-6.12,2.45q-5.26,0-5.26-6.62a15.61,15.61,0,0,1,1.58-6.48,24.16,24.16,0,0,1,6.08-8.57Q156.16,33.7,159.69,33.7Zm.79,2.23q-1.94,0-4.61,2.59a23.81,23.81,0,0,0-4.75,7.06q-2.52,5.18-2.52,8.5t2.52,3.31a6.49,6.49,0,0,0,4-1.94A6.06,6.06,0,0,1,154,51.91q.14-3.1,2.52-3.1a2,2,0,0,1,1.55.65,1.84,1.84,0,0,1,.61,1.19,4.61,4.61,0,0,1-.14,1.12,40.55,40.55,0,0,0,2.81-5.11,16.29,16.29,0,0,0,1.8-7.2Q163.15,35.93,160.48,35.93Z"/><path class="cls-1" d="M168.19,54.72q0-3.1,2.66-7.49-1.15,0-.65-1.15l1.3-2.52q2.45-4.68,4-7.92a2.8,2.8,0,0,1,2.81-1.51h4.39q-2.59,1.87-5.22,7.24t-4.07,8.42A12.26,12.26,0,0,0,172,54.43a3.53,3.53,0,0,0,.54,2.23,1.82,1.82,0,0,0,1.48.65q1.37,0,3.82-2.88,3.81-4.46,10.73-18.79a2.89,2.89,0,0,1,2.81-1.51h3.89a11.67,11.67,0,0,0-2.48,2.52,37,37,0,0,0-2.48,4.61Q186,49.9,185.47,52.7a8.94,8.94,0,0,0-.22,1.87q0,2.3,1.58,2.45,3.89,0,9.58-12,.43-1,.86-.79a.65.65,0,0,1,.43.58,5.47,5.47,0,0,1-.65,1.66L195.8,49q-.61,1.23-1.87,3.35a22.49,22.49,0,0,1-2.34,3.35q-2.81,3.17-5.51,3.17a3.69,3.69,0,0,1-3.71-2.38,7.45,7.45,0,0,1-.43-2.74,15,15,0,0,1,.72-4.1q-5.26,9.22-9.72,9.22-3.89,0-4.54-3.24A1.65,1.65,0,0,1,168.19,54.72Z"/><path class="cls-1" d="M202.53,57.53a10,10,0,0,0,1.3.14q2.88,0,5.69-3.38a71.28,71.28,0,0,0,5.4-9.43.51.51,0,0,1,.5-.36q.65-.07.65.5a3.32,3.32,0,0,1-.32.83c-.22.46-.42.91-.61,1.37s-.5,1.12-.94,2-.8,1.56-1.12,2.09-.71,1.18-1.19,1.94a8.42,8.42,0,0,1-1.44,1.8l-1.51,1.58a6.81,6.81,0,0,1-2.88,1.73,8.71,8.71,0,0,1-5.18.14,7.55,7.55,0,0,1-3,.72q-5.11,0-6.19-4a10.19,10.19,0,0,1-.22-2.27,4.26,4.26,0,0,1,.9-2.56,2.72,2.72,0,0,1,1.91-1.3q3.67-7,6.26-12.6,2.88-6.12,6.7-6.12a4.53,4.53,0,0,1,2,.47q1,.47.72,1t-1,.22a3.42,3.42,0,0,0-1.37-.36,2.22,2.22,0,0,0-1,.22q-2.45,1.15-2.45,5a8.18,8.18,0,0,0,.58,3.31q.58,1.3,1.3,2.81a16.06,16.06,0,0,1,1.66,6.12,8.45,8.45,0,0,1-1.51,4.68A13.42,13.42,0,0,1,202.53,57.53Zm-7.85-2.45a6.66,6.66,0,0,0,.07.94A2.52,2.52,0,0,0,197.42,58a3.2,3.2,0,0,0,1.44-.29,6.33,6.33,0,0,1-2.88-5.4A3.92,3.92,0,0,0,194.68,55.08Zm5.4,1.94q3.17-2.45,3.17-7.92a50.56,50.56,0,0,0-.5-6.12,50.29,50.29,0,0,1-.5-5.26,15.64,15.64,0,0,1,.07-1.87q-5.47,10.95-6.77,13.32,1.51,0,1.51,2.16Q197.06,55.59,200.08,57Z"/></g></g></svg>